<svg width="116" height="33" viewBox="0 0 116 33" fill="none" xmlns="http://www.w3.org/2000/svg">
<g clip-path="url(#clip0_4_95)">
<path fill-rule="evenodd" clip-rule="evenodd" d="M10.9225 0C11.1986 0 11.4225 0.223858 11.4225 0.5V17.7682C11.4225 17.778 11.4225 17.778 11.4225 17.7878C11.4425 19.714 13.0972 21.3159 15.0627 21.3159H15.0727C17.0382 21.3061 18.6828 19.7239 18.6928 17.8075C18.6928 17.7977 18.6928 17.7878 18.6928 17.7878L18.6831 0.510109C18.6829 0.233857 18.9069 0.00982753 19.1831 0.00982753H29.5747C29.8509 0.00982753 30.0747 0.233685 30.0747 0.509828V6.02428C26.0735 6.02428 22.8345 9.19857 22.8345 13.1198C22.8345 16.9722 25.9632 20.1071 29.8742 20.2152C28.6909 27.183 22.5436 32.48 15.0827 32.48H15.0226C6.7193 32.48 0.0506195 25.8857 0.0405915 17.7682L0.0308457 0.500282C0.0306898 0.224029 0.254593 0 0.530846 0H10.9225Z" fill="url(#paint0_linear_4_95)"/>
<path fill-rule="evenodd" clip-rule="evenodd" d="M19.7157 31.7529L19.7959 31.7332C14.09 33.4531 8.16335 32.2738 3.67076 27.3895C0.832807 23.9695 -0.159974 21.2571 0.0205314 14.8889C0.0205314 14.309 0.0205314 9.57216 0.0305595 9.56233C0.0807 7.52803 1.66514 5.98511 3.6507 6.02442C5.59615 6.01459 7.27085 7.52803 7.25079 9.46405C7.31096 13.3754 7.31096 15.8323 7.27085 17.7683C6.83964 24.3626 12.0442 29.581 18.6928 29.6596C23.4863 29.5614 27.3672 26.9079 29.2725 22.4659C27.7282 26.8097 24.6295 30.0626 19.7157 31.7529Z" fill="url(#paint1_linear_4_95)"/>
<path d="M30.1149 17.5422C32.6238 17.5422 34.6576 15.549 34.6576 13.0903C34.6576 10.6316 32.6238 8.63843 30.1149 8.63843C27.606 8.63843 25.5721 10.6316 25.5721 13.0903C25.5721 15.549 27.606 17.5422 30.1149 17.5422Z" fill="#13D9F7"/>
<path d="M42.2974 24.3448C41.157 24.3448 40.0429 24.1976 38.9552 23.9033C37.8674 23.609 36.9989 23.2369 36.3498 22.7868L37.613 20.3199C38.2446 20.7354 38.999 21.0729 39.8763 21.3326C40.771 21.575 41.6483 21.6962 42.508 21.6962C44.473 21.6962 45.4555 21.1855 45.4555 20.1641C45.4555 19.6794 45.2011 19.3418 44.6923 19.1514C44.201 18.961 43.4027 18.7792 42.2974 18.6061C41.1395 18.433 40.1921 18.2339 39.4552 18.0088C38.7358 17.7838 38.1042 17.3943 37.5603 16.8403C37.034 16.2691 36.7708 15.4814 36.7708 14.4773C36.7708 13.1617 37.3235 12.1144 38.4288 11.3353C39.5517 10.539 41.0605 10.1409 42.9554 10.1409C43.9203 10.1409 44.8853 10.2534 45.8502 10.4784C46.8152 10.6862 47.6047 10.9718 48.2188 11.3353L46.9555 13.8022C45.7625 13.1098 44.4203 12.7635 42.929 12.7635C41.9641 12.7635 41.2272 12.9107 40.7184 13.205C40.2271 13.4819 39.9815 13.8541 39.9815 14.3215C39.9815 14.8409 40.2447 15.2131 40.771 15.4381C41.3149 15.6459 42.1483 15.8449 43.2712 16.0354C44.394 16.2085 45.3151 16.4076 46.0344 16.6326C46.7538 16.8576 47.3678 17.2385 47.8766 17.7751C48.403 18.3118 48.6662 19.0735 48.6662 20.0602C48.6662 21.3586 48.096 22.3973 46.9555 23.1763C45.8151 23.9553 44.2624 24.3448 42.2974 24.3448Z" fill="white"/>
<path d="M59.289 10.1409C60.6575 10.1409 61.8769 10.4352 62.9471 11.0237C64.0349 11.6123 64.8858 12.4433 65.4998 13.5166C66.1139 14.5899 66.4209 15.8276 66.4209 17.2298C66.4209 18.6321 66.1139 19.8785 65.4998 20.9691C64.8858 22.0424 64.0349 22.8733 62.9471 23.4619C61.8769 24.0505 60.6575 24.3448 59.289 24.3448C57.3942 24.3448 55.8941 23.7216 54.7888 22.4752V29.2006H51.4992V10.2967H54.6309V12.1144C55.1748 11.4565 55.8415 10.9632 56.631 10.6342C57.438 10.3053 58.324 10.1409 59.289 10.1409ZM58.9206 21.5663C60.1312 21.5663 61.1224 21.1682 61.8944 20.3718C62.6839 19.5755 63.0787 18.5282 63.0787 17.2298C63.0787 15.9315 62.6839 14.8842 61.8944 14.0878C61.1224 13.2915 60.1312 12.8934 58.9206 12.8934C58.1311 12.8934 57.4205 13.0751 56.7889 13.4387C56.1573 13.7849 55.6572 14.2869 55.2888 14.9448C54.9204 15.6026 54.7362 16.3643 54.7362 17.2298C54.7362 18.0954 54.9204 18.8571 55.2888 19.5149C55.6572 20.1728 56.1573 20.6834 56.7889 21.047C57.4205 21.3932 58.1311 21.5663 58.9206 21.5663Z" fill="white"/>
<path d="M83.0124 10.2967V24.163H79.8807V22.3713C79.3368 23.0291 78.6613 23.5225 77.8543 23.8514C77.0648 24.1803 76.1875 24.3448 75.2226 24.3448C73.8541 24.3448 72.626 24.0505 71.5382 23.4619C70.468 22.8733 69.6258 22.0424 69.0117 20.9691C68.4152 19.8958 68.117 18.6494 68.117 17.2298C68.117 15.8103 68.4152 14.5726 69.0117 13.5166C69.6258 12.4433 70.468 11.6123 71.5382 11.0237C72.626 10.4352 73.8541 10.1409 75.2226 10.1409C76.1349 10.1409 76.9683 10.2967 77.7227 10.6083C78.4947 10.9199 79.1614 11.3786 79.7228 11.9845V10.2967H83.0124ZM75.591 21.5663C76.8016 21.5663 77.8017 21.1682 78.5912 20.3718C79.3807 19.5755 79.7754 18.5282 79.7754 17.2298C79.7754 15.9315 79.3807 14.8842 78.5912 14.0878C77.8017 13.2915 76.8016 12.8934 75.591 12.8934C74.3804 12.8934 73.3804 13.2915 72.5909 14.0878C71.8189 14.8842 71.4329 15.9315 71.4329 17.2298C71.4329 18.5282 71.8189 19.5755 72.5909 20.3718C73.3804 21.1682 74.3804 21.5663 75.591 21.5663Z" fill="white"/>
<path d="M93.4984 24.3448C92.0422 24.3448 90.7351 24.0418 89.5771 23.4359C88.4192 22.83 87.5156 21.9904 86.8665 20.9171C86.2173 19.8265 85.8927 18.5974 85.8927 17.2298C85.8927 15.8622 86.2173 14.6418 86.8665 13.5685C87.5156 12.4952 88.4104 11.6556 89.5508 11.0497C90.7088 10.4438 92.0246 10.1409 93.4984 10.1409C94.8844 10.1409 96.095 10.4179 97.1301 10.9718C98.1828 11.5258 98.9723 12.3221 99.4987 13.3608L96.9722 14.8149C96.5687 14.1744 96.0599 13.6983 95.4458 13.3867C94.8493 13.0578 94.1914 12.8934 93.4721 12.8934C92.2439 12.8934 91.2263 13.2915 90.4193 14.0878C89.6122 14.8668 89.2087 15.9142 89.2087 17.2298C89.2087 18.5455 89.6034 19.6015 90.393 20.3978C91.2 21.1768 92.2264 21.5663 93.4721 21.5663C94.1914 21.5663 94.8493 21.4105 95.4458 21.0989C96.0599 20.77 96.5687 20.2853 96.9722 19.6448L99.4987 21.0989C98.9548 22.1376 98.1565 22.9426 97.1038 23.5138C96.0687 24.0678 94.8669 24.3448 93.4984 24.3448Z" fill="white"/>
<path d="M115.682 10.2967V22.0597C115.682 26.9415 113.253 29.3824 108.393 29.3824C107.112 29.3824 105.884 29.2092 104.708 28.863C103.55 28.5341 102.594 28.0494 101.84 27.4089L103.313 24.968C103.91 25.47 104.638 25.8682 105.498 26.1625C106.357 26.4568 107.261 26.6039 108.208 26.6039C109.647 26.6039 110.7 26.2577 111.366 25.5652C112.051 24.8901 112.393 23.8427 112.393 22.4232V21.7741C111.866 22.3453 111.226 22.7868 110.472 23.0984C109.717 23.3927 108.901 23.5398 108.024 23.5398C106.147 23.5398 104.664 23.0291 103.577 22.0078C102.506 20.9864 101.971 19.4543 101.971 17.4116V10.2967H105.261V16.9961C105.261 18.2252 105.542 19.1514 106.103 19.7746C106.682 20.3805 107.498 20.6834 108.551 20.6834C109.726 20.6834 110.656 20.3286 111.34 19.6188C112.042 18.909 112.393 17.879 112.393 16.5287V10.2967H115.682Z" fill="white"/>
</g>
<defs>
<linearGradient id="paint0_linear_4_95" x1="6.70258" y1="15.5215" x2="30.0581" y2="13.5627" gradientUnits="userSpaceOnUse">
<stop stop-color="#2A18F0"/>
<stop offset="0.631373" stop-color="#861ACC"/>
<stop offset="1" stop-color="#E31DA8"/>
</linearGradient>
<linearGradient id="paint1_linear_4_95" x1="1.72151" y1="9.51769" x2="17.7754" y2="35.0615" gradientUnits="userSpaceOnUse">
<stop stop-color="#13D9F7"/>
<stop offset="1" stop-color="#452AF4"/>
</linearGradient>
<clipPath id="clip0_4_95">
<rect width="116" height="32.48" fill="white"/>
</clipPath>
</defs>
</svg>
